<svg xmlns="http://www.w3.org/2000/svg" width="532" height="532" viewBox="0 0 532 532" xmlns:xlink="http://www.w3.org/1999/xlink"><circle cx="270.75985" cy="260.93426" r="86.34897" fill="#ffb6b6"/><polygon points="221.18982 360.05209 217.28875 320.61849 295.18982 306.05209 341.18982 418.05209 261.18982 510.05209 204.18982 398.05209 221.18982 360.05209" fill="#ffb6b6"/><path d="M216.0374,340.35737l17.03112,3.84802s-13.38822-42.45452-8.84396-46.50767c4.54426-4.05315,15.68007,2.33327,15.68007,2.33327l11.70201,13.11991,14.25393-14.51239s15.47494-19.24211,21.53395-24.64631c6.05901-5.4042-3.67318-25.46364-3.67318-25.46364,0,0,89.89184-24.23923,56.443-67.83967,0,0-19.61094-34.18452-25.99736-23.04871-6.38642,11.13581-14.00161-6.55012-14.00161-6.55012l-23.25383,4.42198s-45.89428-27.06043-89.4533,30.82959c-43.55902,57.89003,28.57917,154.01573,28.57917,154.01573Z" fill="#2f2e41"/><path d="M433.16003,472.95001c-47.19,38.26001-105.57001,59.04999-167.16003,59.04999-56.23999,0-109.81-17.33997-154.62-49.47998,.08002-.84003,.16003-1.66998,.23004-2.5,1.19-13,2.25-25.64001,2.94995-36.12,2.71002-40.69,97.64001-67.81,97.64001-67.81,0,0,.42999,.42999,1.29004,1.17999,5.23999,4.59998,26.50995,21.27997,63.81,25.94,33.25995,4.15997,44.20996-15.57001,47.51996-25.02002,1-2.88,1.30005-4.81,1.30005-4.81l97.63995,46.10999c6.37,9.10004,8.86005,28.70001,9.35004,50.73004,.01996,.90997,.03998,1.81,.04999,2.72998Z" fill="#ffffff"/><path d="M454.09003,77.91003C403.85004,27.66998,337.05005,0,266,0S128.15002,27.66998,77.91003,77.91003C27.67004,128.15002,0,194.95001,0,266c0,64.85004,23.05005,126.16003,65.29004,174.57001,4.02997,4.63,8.23999,9.14001,12.62,13.52002,1.02997,1.02997,2.07001,2.06,3.12,3.06,2.79999,2.70996,5.65002,5.35999,8.54999,7.92999,1.76001,1.57001,3.54004,3.10999,5.34003,4.62,1.40997,1.19,2.82001,2.35999,4.25,3.51001,.02997,.02997,.04999,.04999,.07996,.07001,3.97003,3.19995,8.01001,6.27997,12.13,9.23999,44.81,32.14001,98.38,49.47998,154.62,49.47998,61.59003,0,119.97003-20.78998,167.16003-59.04999,3.84998-3.12,7.62-6.35999,11.32001-9.71002,3.26996-2.95996,6.46997-6.01001,9.60999-9.14996,.98999-.98999,1.97998-1.98999,2.95001-3,2.70001-2.78003,5.32001-5.61005,7.88-8.48004,43.37-48.71997,67.07996-110.83997,67.07996-176.60999,0-71.04999-27.66998-137.84998-77.90997-188.08997Zm10.17999,362.20996c-2.5,2.84003-5.06,5.64001-7.67999,8.37-4.08002,4.25-8.28998,8.37-12.64001,12.34003-1.64996,1.52002-3.32001,3-5.01001,4.46997-1.91998,1.67004-3.85999,3.31-5.82996,4.92004-15.53003,12.75-32.54004,23.75-50.73004,32.70996-7.19,3.54999-14.56,6.78003-22.09998,9.67004-29.28998,11.23999-61.08002,17.39996-94.28003,17.39996-32.03998,0-62.75995-5.73999-91.19-16.23999-11.66998-4.29999-22.94995-9.40997-33.77997-15.26001-1.59003-.85999-3.16998-1.72998-4.73999-2.62-8.26001-4.67999-16.25-9.78998-23.91998-15.31-.25-.17999-.51001-.37-.76001-.54999-5.46002-3.94-10.77002-8.09003-15.90002-12.45001-1.88-1.59003-3.73999-3.20001-5.57001-4.84998-2.97998-2.65002-5.89996-5.38-8.75-8.18005-5.39996-5.28998-10.56-10.79999-15.48999-16.52997C26.09003,391.77002,2,331.65002,2,266,2,120.42999,120.43005,2,266,2s264,118.42999,264,264c0,66.66003-24.82996,127.62-65.72998,174.12Z" fill="#3f3d56"/></svg>