<svg xmlns="http://www.w3.org/2000/svg" width="532" height="532" viewBox="0 0 532 532" xmlns:xlink="http://www.w3.org/1999/xlink"><polygon points="379.19 379.04999 246.19 379.04999 246.19 199.04999 361.19 262.04999 379.19 379.04999" fill="#2f2e41"/><circle cx="270.76003" cy="260.93216" r="86.34897" fill="#ffb6b6"/><polygon points="221.19 360.04999 217.28893 320.61639 295.19 306.04999 341.19 418.04999 261.19 510.04999 204.19 398.04999 221.19 360.04999" fill="#ffb6b6"/><path d="M457.03998,451.08997c-.96997,1.01001-1.95996,2.01001-2.94995,3-3.14001,3.14001-6.34003,6.19-9.61005,9.15002-49,44.44-111.87,68.76001-178.47998,68.76001-61.40997,0-119.64001-20.67004-166.75-58.72003-.02997-.02002-.04999-.03998-.08002-.07001-1.42999-1.14996-2.83997-2.32001-4.25-3.51001,.25-.71997,.52002-1.42999,.79004-2.13,15.14996-39.46997,45.07001-58.77997,63.22998-67.22998,9-4.19,15.10999-5.71997,15.10999-5.71997l21.32001-38.40002,15.01001,28,11.06,20.64001,45.38,84.66998,39.15002-97.47998,12.12994-30.22003,3.11005-7.73999,14.78998,11.51001,14,10.89001,28.19,6.21997,22.87,5.04999,31.06,6.86005c12.56,10.22998,20.20001,29.69,24.47003,53.87,.15997,.85999,.31,1.72998,.44995,2.59998Z" fill="#00a2ff"/><path d="M225.33945,162.80316c10.51815-17.66799,29.83584-29.79032,50.31991-31.57699,20.48407-1.78667,41.60876,6.80817,55.02691,22.38837,7.99587,9.28423,13.23863,20.65455,21.03257,30.10893,16.7723,20.34551,45.37225,32.24151,52.69914,57.57068,3.19726,11.05298,1.6041,22.85326-.01367,34.24508-1.38661,9.76408-2.77323,19.52816-4.15984,29.29225-1.07909,7.59863-2.11385,15.6093,.73537,22.7357,3.34277,8.36085,11.34241,13.83687,16.51463,21.2075,8.80082,12.54154,8.15743,30.90354-1.49963,42.79833-4.18804,5.15848-9.74042,9.04875-14.13118,14.03582s-7.64764,11.80563-5.80864,18.19058c3.52285,12.23125,22.70461,15.1645,24.80848,27.71789,1.07565,6.41819-3.35748,12.82759-9.1658,15.76246-5.80833,2.93487-12.64573,3.02011-19.10588,2.23491-24.55346-2.98436-47.28704-18.32628-59.24159-39.97963-11.95455-21.65335-12.82505-49.06561-2.26844-71.43382,8.67036-18.37146,24.78518-34.60558,24.60965-54.91949-.09563-11.0668-5.17173-21.4032-10.13535-31.2949-10.15925-20.24577-20.31851-40.49153-30.47776-60.7373-5.44196-10.84495-11.75745-22.53171-22.96113-27.19062-8.65872-3.60063-18.48323-2.20412-27.7444-.73141s-19.07155,2.90622-27.75604-.6318-15.24645-14.04982-11.10871-22.4651" fill="#2f2e41"/><path d="M240.4714,163.72575c-16.68272-5.49146-35.39705,3.32417-46.6913,16.77442-11.29425,13.45025-16.77288,30.70596-21.992,47.47588-2.98951,9.60582-5.97903,19.21164-8.96854,28.81746-2.81225,9.03624-5.6245,18.07248-8.43675,27.10872-3.30785,10.62869-6.64274,21.92049-3.92802,32.71592,1.96262,7.8046,7.01262,14.89122,7.12131,22.93807,.11353,8.40567-5.15047,15.78509-9.7636,22.81269-4.61312,7.0276-8.94346,15.37701-6.74557,23.49104,3.34307,12.34173,20.502,19.12564,19.56139,31.87748-.31391,4.2557-2.7749,8.19205-2.73022,12.45908,.05684,5.42915,4.30745,10.12029,9.2874,12.28337,4.97996,2.16307,10.5818,2.28052,16.0104,2.18506,16.65133-.2928,33.27257-2.27027,49.52779-5.89246,6.25403-1.3936,12.61382-3.1028,17.81967-6.83832s9.08941-9.92447,8.4119-16.29597c-1.05575-9.92862-11.73091-15.56142-17.11801-23.96804-5.29137-8.25724-5.16868-18.71959-7.45038-28.25764-3.13582-13.10846-10.88029-24.55248-16.69401-36.71249-21.85695-45.71607-14.20572-103.98719,18.71225-142.51109,2.9105-3.40616,6.0903-6.83273,7.30456-11.14533,1.21426-4.3126-.35107-9.80727-4.5697-11.31593" fill="#2f2e41"/><path d="M454.09003,77.90997C403.84998,27.66998,337.04999,0,266,0S128.15002,27.66998,77.90997,77.90997C27.66998,128.14996,0,194.94995,0,266c0,64.84998,23.04999,126.15997,65.28998,174.56995,4.03003,4.63,8.24005,9.14001,12.62,13.52002,1.03003,1.03003,2.07001,2.06,3.12006,3.06,2.79999,2.71002,5.64996,5.35999,8.54999,7.92999,1.76001,1.57001,3.53998,3.11005,5.33997,4.62,1.41003,1.19,2.82001,2.36005,4.25,3.51001,.03003,.03003,.05005,.04999,.08002,.07001,47.10999,38.04999,105.34003,58.72003,166.75,58.72003,66.60999,0,129.47998-24.32001,178.47998-68.76001,3.27002-2.96002,6.47003-6.01001,9.61005-9.15002,.98999-.98999,1.97998-1.98999,2.94995-3,2.70001-2.77997,5.32001-5.60999,7.88-8.47998,43.37-48.72003,67.08002-110.84003,67.08002-176.60999,0-71.05005-27.66998-137.85004-77.90997-188.09003Zm10.17999,362.21002c-2.5,2.83997-5.06,5.63995-7.67999,8.37-4.08002,4.25-8.29004,8.37-12.64001,12.33997-1.65002,1.52002-3.32001,3-5.01001,4.47003-17.07001,14.84998-36.07001,27.52997-56.56,37.63-7.19,3.54999-14.56,6.77997-22.09998,9.66998-29.29004,11.23999-61.08002,17.40002-94.28003,17.40002-32.03998,0-62.76001-5.74005-91.19-16.24005-11.66998-4.29999-22.95001-9.40997-33.77997-15.25995-1.59003-.86005-3.17004-1.73004-4.74005-2.62006-8.25995-4.67999-16.25-9.78998-23.91998-15.31-5.72998-4.10999-11.28998-8.44-16.65997-13-1.88-1.58997-3.73999-3.19995-5.57001-4.84998-2.98004-2.65002-5.90002-5.38-8.75-8.17999-5.40002-5.28998-10.56-10.79999-15.48999-16.53003C26.09003,391.76996,2,331.64996,2,266,2,120.42999,120.42999,2,266,2s264,118.42999,264,264c0,66.65997-24.83002,127.62-65.72998,174.12Z" fill="#3f3d56"/></svg>