<svg id="visual" viewBox="0 0 900 600" width="900" height="600" xmlns="http://www.w3.org/2000/svg" xmlns:xlink="http://www.w3.org/1999/xlink" version="1.1"><g transform="translate(456.1452043714048 307.67388298370133)"><path d="M148.8 -209C188.3 -176.1 212.5 -126.5 230.7 -74.1C248.9 -21.7 260.9 33.5 247.9 82.7C234.9 131.9 196.8 175.2 151.3 200.1C105.8 225 52.9 231.5 -2.6 235.1C-58.2 238.8 -116.4 239.5 -158.7 213.6C-201 187.7 -227.5 135.1 -245.9 79.6C-264.4 24.1 -274.9 -34.3 -254.6 -78.4C-234.3 -122.5 -183.3 -152.3 -135.7 -182.5C-88.2 -212.7 -44.1 -243.3 5.3 -250.6C54.7 -257.9 109.3 -241.8 148.8 -209" fill="#00B0FF"></path></g></svg>