<svg id="visual" viewBox="0 0 900 600" width="900" height="600" xmlns="http://www.w3.org/2000/svg" xmlns:xlink="http://www.w3.org/1999/xlink" version="1.1"><path d="M0 456L37.5 444.8C75 433.7 150 411.3 225 394.3C300 377.3 375 365.7 450 368.3C525 371 600 388 675 404.8C750 421.7 825 438.3 862.5 446.7L900 455L900 601L862.5 601C825 601 750 601 675 601C600 601 525 601 450 601C375 601 300 601 225 601C150 601 75 601 37.5 601L0 601Z" fill="#00b7ff" stroke-linecap="round" stroke-linejoin="miter"></path></svg>