<svg id="visual" viewBox="0 0 900 600" width="900" height="600" xmlns="http://www.w3.org/2000/svg" xmlns:xlink="http://www.w3.org/1999/xlink" version="1.1"><path d="M0 368L21.5 354.2C43 340.3 86 312.7 128.8 294C171.7 275.3 214.3 265.7 257.2 268.7C300 271.7 343 287.3 385.8 325.5C428.7 363.7 471.3 424.3 514.2 451.3C557 478.3 600 471.7 642.8 456.7C685.7 441.7 728.3 418.3 771.2 420.3C814 422.3 857 449.7 878.5 463.3L900 477L900 601L878.5 601C857 601 814 601 771.2 601C728.3 601 685.7 601 642.8 601C600 601 557 601 514.2 601C471.3 601 428.7 601 385.8 601C343 601 300 601 257.2 601C214.3 601 171.7 601 128.8 601C86 601 43 601 21.5 601L0 601Z" fill="#0017ff" stroke-linecap="round" stroke-linejoin="miter"></path></svg>